<mxfile host="app.diagrams.net" modified="2021-08-19T06:23:04.979Z" agent="5.0 (Windows NT 10.0; Win64; x64) AppleWebKit/537.36 (KHTML, like Gecko) Chrome/92.0.4515.159 Safari/537.36" etag="bEjplHklUTd6rXZJLXZI" version="14.9.3" type="github">
  <diagram id="f_AHl71J5UyCxcIMEl2Y" name="Page-1">
    <mxGraphModel dx="1360" dy="802" grid="1" gridSize="10" guides="1" tooltips="1" connect="1" arrows="1" fold="1" page="1" pageScale="1" pageWidth="827" pageHeight="1169" math="0" shadow="0">
      <root>
        <mxCell id="0" />
        <mxCell id="1" parent="0" />
        <mxCell id="aTvy37-NcjgM4lKViFDM-1" value="irqEntry()" style="rounded=0;whiteSpace=wrap;html=1;labelBackgroundColor=none;fontSize=16;align=center;fillColor=#eeeeee;strokeColor=#36393d;" vertex="1" parent="1">
          <mxGeometry x="280" y="160" width="160" height="40" as="geometry" />
        </mxCell>
        <mxCell id="aTvy37-NcjgM4lKViFDM-2" value="" style="edgeStyle=orthogonalEdgeStyle;rounded=0;orthogonalLoop=1;jettySize=auto;html=1;startArrow=none;startFill=0;endArrow=classic;endFill=1;fontSize=16;fontColor=#000000;" edge="1" parent="1" source="aTvy37-NcjgM4lKViFDM-3" target="aTvy37-NcjgM4lKViFDM-1">
          <mxGeometry relative="1" as="geometry" />
        </mxCell>
        <mxCell id="aTvy37-NcjgM4lKViFDM-3" value="startup.S" style="text;html=1;strokeColor=none;fillColor=none;align=right;verticalAlign=middle;whiteSpace=wrap;rounded=0;labelBackgroundColor=none;fontSize=16;fontColor=#000000;" vertex="1" parent="1">
          <mxGeometry x="120" y="160" width="119" height="40" as="geometry" />
        </mxCell>
        <mxCell id="aTvy37-NcjgM4lKViFDM-4" value="archIntEntry()" style="rounded=0;whiteSpace=wrap;html=1;labelBackgroundColor=none;fillColor=#f9f7ed;fontSize=16;align=center;strokeColor=#36393d;" vertex="1" parent="1">
          <mxGeometry x="280" y="280" width="160" height="40" as="geometry" />
        </mxCell>
        <mxCell id="aTvy37-NcjgM4lKViFDM-5" value="" style="edgeStyle=orthogonalEdgeStyle;rounded=0;orthogonalLoop=1;jettySize=auto;html=1;startArrow=none;startFill=0;endArrow=classic;endFill=1;fontSize=16;fontColor=#000000;" edge="1" parent="1" source="aTvy37-NcjgM4lKViFDM-6" target="aTvy37-NcjgM4lKViFDM-4">
          <mxGeometry relative="1" as="geometry" />
        </mxCell>
        <mxCell id="aTvy37-NcjgM4lKViFDM-6" value="armExcAsm.S" style="text;html=1;strokeColor=none;fillColor=none;align=right;verticalAlign=middle;whiteSpace=wrap;rounded=0;labelBackgroundColor=none;fontSize=16;fontColor=#000000;" vertex="1" parent="1">
          <mxGeometry x="129" y="280" width="110" height="40" as="geometry" />
        </mxCell>
        <mxCell id="aTvy37-NcjgM4lKViFDM-7" value="API_InterEnter()" style="rounded=0;whiteSpace=wrap;html=1;labelBackgroundColor=none;fillColor=#ffcc99;fontSize=16;align=center;strokeColor=#36393d;" vertex="1" parent="1">
          <mxGeometry x="280" y="370" width="160" height="40" as="geometry" />
        </mxCell>
        <mxCell id="aTvy37-NcjgM4lKViFDM-8" value="" style="edgeStyle=orthogonalEdgeStyle;rounded=0;orthogonalLoop=1;jettySize=auto;html=1;startArrow=none;startFill=0;endArrow=classic;endFill=1;fontSize=16;fontColor=#000000;" edge="1" parent="1" source="aTvy37-NcjgM4lKViFDM-10" target="aTvy37-NcjgM4lKViFDM-24">
          <mxGeometry relative="1" as="geometry">
            <Array as="points">
              <mxPoint x="260" y="420" />
              <mxPoint x="260" y="450" />
            </Array>
          </mxGeometry>
        </mxCell>
        <mxCell id="aTvy37-NcjgM4lKViFDM-9" value="" style="edgeStyle=orthogonalEdgeStyle;rounded=0;orthogonalLoop=1;jettySize=auto;html=1;startArrow=none;startFill=0;endArrow=classic;endFill=1;fontSize=16;fontColor=#000000;" edge="1" parent="1" source="aTvy37-NcjgM4lKViFDM-10" target="aTvy37-NcjgM4lKViFDM-24">
          <mxGeometry relative="1" as="geometry">
            <Array as="points">
              <mxPoint x="260" y="420" />
              <mxPoint x="260" y="450" />
            </Array>
          </mxGeometry>
        </mxCell>
        <mxCell id="aTvy37-NcjgM4lKViFDM-10" value="InterEnterExit.c" style="text;html=1;strokeColor=none;fillColor=none;align=right;verticalAlign=middle;whiteSpace=wrap;rounded=0;labelBackgroundColor=none;fontSize=16;fontColor=#000000;" vertex="1" parent="1">
          <mxGeometry x="115.25" y="400" width="128.5" height="40" as="geometry" />
        </mxCell>
        <mxCell id="aTvy37-NcjgM4lKViFDM-11" value="bspIntHandle()" style="rounded=0;whiteSpace=wrap;html=1;labelBackgroundColor=none;fontSize=16;align=center;fillColor=#eeeeee;strokeColor=#36393d;" vertex="1" parent="1">
          <mxGeometry x="520" y="160" width="160" height="40" as="geometry" />
        </mxCell>
        <mxCell id="aTvy37-NcjgM4lKViFDM-12" value="" style="edgeStyle=orthogonalEdgeStyle;rounded=0;orthogonalLoop=1;jettySize=auto;html=1;startArrow=none;startFill=0;endArrow=classic;endFill=1;fontSize=16;fontColor=#000000;" edge="1" parent="1" source="aTvy37-NcjgM4lKViFDM-13" target="aTvy37-NcjgM4lKViFDM-11">
          <mxGeometry relative="1" as="geometry" />
        </mxCell>
        <mxCell id="aTvy37-NcjgM4lKViFDM-13" value="bspLib.c" style="text;html=1;strokeColor=none;fillColor=none;align=left;verticalAlign=middle;whiteSpace=wrap;rounded=0;labelBackgroundColor=none;fontSize=16;fontColor=#000000;" vertex="1" parent="1">
          <mxGeometry x="720" y="160" width="126" height="40" as="geometry" />
        </mxCell>
        <mxCell id="aTvy37-NcjgM4lKViFDM-14" value="archIntHandle()" style="rounded=0;whiteSpace=wrap;html=1;labelBackgroundColor=none;fillColor=#f9f7ed;fontSize=16;align=center;strokeColor=#36393d;" vertex="1" parent="1">
          <mxGeometry x="520" y="280" width="160" height="40" as="geometry" />
        </mxCell>
        <mxCell id="aTvy37-NcjgM4lKViFDM-15" value="API_InterVectorIsr()" style="rounded=0;whiteSpace=wrap;html=1;labelBackgroundColor=none;fillColor=#ffcc99;fontSize=16;align=center;strokeColor=#36393d;" vertex="1" parent="1">
          <mxGeometry x="520" y="400" width="160" height="40" as="geometry" />
        </mxCell>
        <mxCell id="aTvy37-NcjgM4lKViFDM-16" value="" style="edgeStyle=orthogonalEdgeStyle;rounded=0;orthogonalLoop=1;jettySize=auto;html=1;startArrow=none;startFill=0;endArrow=classic;endFill=1;fontSize=16;fontColor=#000000;" edge="1" parent="1" source="aTvy37-NcjgM4lKViFDM-17" target="aTvy37-NcjgM4lKViFDM-14">
          <mxGeometry relative="1" as="geometry" />
        </mxCell>
        <mxCell id="aTvy37-NcjgM4lKViFDM-17" value="armExc.c" style="text;html=1;strokeColor=none;fillColor=none;align=left;verticalAlign=middle;whiteSpace=wrap;rounded=0;labelBackgroundColor=none;fontSize=16;fontColor=#000000;" vertex="1" parent="1">
          <mxGeometry x="720" y="280" width="96" height="40" as="geometry" />
        </mxCell>
        <mxCell id="aTvy37-NcjgM4lKViFDM-18" value="" style="edgeStyle=orthogonalEdgeStyle;rounded=0;orthogonalLoop=1;jettySize=auto;html=1;startArrow=none;startFill=0;endArrow=classic;endFill=1;fontSize=16;fontColor=#000000;" edge="1" parent="1" source="aTvy37-NcjgM4lKViFDM-19" target="aTvy37-NcjgM4lKViFDM-15">
          <mxGeometry relative="1" as="geometry" />
        </mxCell>
        <mxCell id="aTvy37-NcjgM4lKViFDM-19" value="InterVectorIsr.c" style="text;html=1;strokeColor=none;fillColor=none;align=left;verticalAlign=middle;whiteSpace=wrap;rounded=0;labelBackgroundColor=none;fontSize=16;fontColor=#000000;" vertex="1" parent="1">
          <mxGeometry x="720" y="400" width="136" height="40" as="geometry" />
        </mxCell>
        <mxCell id="aTvy37-NcjgM4lKViFDM-20" value="" style="endArrow=none;html=1;fontSize=16;fontColor=#000000;fillColor=#f9f7ed;strokeColor=#36393d;" edge="1" parent="1">
          <mxGeometry width="50" height="50" relative="1" as="geometry">
            <mxPoint x="80" y="240" as="sourcePoint" />
            <mxPoint x="840" y="240" as="targetPoint" />
          </mxGeometry>
        </mxCell>
        <mxCell id="aTvy37-NcjgM4lKViFDM-21" value="" style="endArrow=none;html=1;fontSize=16;fontColor=#000000;fillColor=#ffcc99;strokeColor=#36393d;" edge="1" parent="1">
          <mxGeometry width="50" height="50" relative="1" as="geometry">
            <mxPoint x="80" y="360" as="sourcePoint" />
            <mxPoint x="840" y="360" as="targetPoint" />
          </mxGeometry>
        </mxCell>
        <mxCell id="aTvy37-NcjgM4lKViFDM-22" value="" style="endArrow=none;html=1;fontSize=16;fontColor=#000000;fillColor=#eeeeee;strokeColor=#36393d;" edge="1" parent="1">
          <mxGeometry width="50" height="50" relative="1" as="geometry">
            <mxPoint x="80" y="480" as="sourcePoint" />
            <mxPoint x="840" y="480" as="targetPoint" />
          </mxGeometry>
        </mxCell>
        <mxCell id="aTvy37-NcjgM4lKViFDM-23" value="" style="endArrow=none;html=1;fontSize=16;fontColor=#000000;fillColor=#eeeeee;strokeColor=#36393d;" edge="1" parent="1">
          <mxGeometry width="50" height="50" relative="1" as="geometry">
            <mxPoint x="80" y="130" as="sourcePoint" />
            <mxPoint x="840" y="130" as="targetPoint" />
          </mxGeometry>
        </mxCell>
        <mxCell id="aTvy37-NcjgM4lKViFDM-24" value="API_InterExit()" style="rounded=0;whiteSpace=wrap;html=1;labelBackgroundColor=none;fillColor=#ffcc99;fontSize=16;align=center;strokeColor=#36393d;" vertex="1" parent="1">
          <mxGeometry x="280" y="430" width="160" height="40" as="geometry" />
        </mxCell>
        <mxCell id="aTvy37-NcjgM4lKViFDM-25" value="Bsp" style="rounded=1;whiteSpace=wrap;html=1;arcSize=50;strokeColor=#36393d;strokeWidth=1;fillColor=#eeeeee;whiteSpace=wrap;align=left;verticalAlign=middle;spacingLeft=0;fontStyle=1;fontSize=14;spacing=10;labelBackgroundColor=none;" vertex="1" parent="1">
          <mxGeometry x="80" y="130" width="62.5" height="20" as="geometry" />
        </mxCell>
        <mxCell id="aTvy37-NcjgM4lKViFDM-26" value="Arch" style="rounded=1;whiteSpace=wrap;html=1;arcSize=50;strokeColor=#36393d;strokeWidth=1;fillColor=#f9f7ed;whiteSpace=wrap;align=left;verticalAlign=middle;spacingLeft=0;fontStyle=1;fontSize=14;spacing=10;labelBackgroundColor=none;" vertex="1" parent="1">
          <mxGeometry x="80" y="240" width="62.5" height="20" as="geometry" />
        </mxCell>
        <mxCell id="aTvy37-NcjgM4lKViFDM-27" value="Kernel" style="rounded=1;whiteSpace=wrap;html=1;arcSize=50;strokeColor=#36393d;strokeWidth=1;fillColor=#ffcc99;whiteSpace=wrap;align=left;verticalAlign=middle;spacingLeft=0;fontStyle=1;fontSize=14;spacing=10;labelBackgroundColor=none;" vertex="1" parent="1">
          <mxGeometry x="80" y="360" width="62.5" height="20" as="geometry" />
        </mxCell>
        <mxCell id="aTvy37-NcjgM4lKViFDM-28" value="" style="endArrow=classic;html=1;fontSize=16;fontColor=#000000;rounded=0;" edge="1" parent="1">
          <mxGeometry width="50" height="50" relative="1" as="geometry">
            <mxPoint x="260" y="420" as="sourcePoint" />
            <mxPoint x="280" y="390" as="targetPoint" />
            <Array as="points">
              <mxPoint x="260" y="390" />
            </Array>
          </mxGeometry>
        </mxCell>
      </root>
    </mxGraphModel>
  </diagram>
</mxfile>
